<svg width="25" height="25" viewBox="0 0 25 25" fill="none" xmlns="http://www.w3.org/2000/svg">
<g clip-path="url(#clip0)">
<path d="M22.5625 4.01453C23.0929 4.01453 23.6016 4.22524 23.9767 4.60031C24.3518 4.97539 24.5625 5.48409 24.5625 6.01453V16.0145C24.5625 16.545 24.3518 17.0537 23.9767 17.4287C23.6016 17.8038 23.0929 18.0145 22.5625 18.0145H6.5625C6.03207 18.0145 5.52336 17.8038 5.14829 17.4287C4.77321 17.0537 4.5625 16.545 4.5625 16.0145V4.01453C4.5625 3.48409 4.77321 2.97539 5.14829 2.60031C5.52336 2.22524 6.03207 2.01453 6.5625 2.01453H12.5625L14.5625 4.01453H22.5625ZM2.5625 6.01453V20.0145H20.5625V22.0145H2.5625C2.03207 22.0145 1.52336 21.8038 1.14829 21.4287C0.773214 21.0537 0.5625 20.545 0.5625 20.0145V11.0145V6.01453H2.5625ZM6.5625 6.01453V16.0145H22.5625V6.01453H6.5625Z" fill="#43a724"/>
</g>
<defs>
<clipPath id="clip0">
<rect width="24" height="24" fill="white" transform="translate(0.5625 0.0145264)"/>
</clipPath>
</defs>
</svg>
