<svg width="32" height="32" viewBox="0 0 32 32" fill="none" xmlns="http://www.w3.org/2000/svg">
<circle cx="16" cy="16" r="16" fill="url(#paint0_linear)"/>
<path d="M25.92 10C25.15 10.35 24.32 10.58 23.46 10.69C24.34 10.16 25.02 9.32 25.34 8.31C24.51 8.81 23.59 9.16 22.62 9.36C21.83 8.5 20.72 8 19.46 8C17.11 8 15.19 9.92 15.19 12.29C15.19 12.63 15.23 12.96 15.3 13.27C11.74 13.09 8.57 11.38 6.46 8.79C6.09 9.42 5.88 10.16 5.88 10.94C5.88 12.43 6.63 13.75 7.79 14.5C7.08 14.5 6.42 14.3 5.84 14C5.84 14 5.84 14 5.84 14.03C5.84 16.11 7.32 17.85 9.28 18.24C8.92 18.34 8.54 18.39 8.15 18.39C7.88 18.39 7.61 18.36 7.35 18.31C7.89 20 9.46 21.26 11.35 21.29C9.89 22.45 8.04 23.13 6.02 23.13C5.68 23.13 5.34 23.11 5 23.07C6.9 24.29 9.16 25 11.58 25C19.46 25 23.79 18.46 23.79 12.79C23.79 12.6 23.79 12.42 23.78 12.23C24.62 11.63 25.34 10.87 25.92 10Z" fill="white"/>
<defs>
<linearGradient id="paint0_linear" x1="6.15695" y1="27.6361" x2="25.6679" y2="4.54042" gradientUnits="userSpaceOnUse">
<stop stop-color="#FF8600"/>
<stop offset="1" stop-color="#FFC100"/>
</linearGradient>
</defs>
</svg>
