<svg width="32" height="32" viewBox="0 0 32 32" fill="none" xmlns="http://www.w3.org/2000/svg">
<circle cx="16" cy="16" r="16" fill="url(#paint0_linear)"/>
<path d="M14 19L19.19 16L14 13V19ZM25.56 11.17C25.69 11.64 25.78 12.27 25.84 13.07C25.91 13.87 25.94 14.56 25.94 15.16L26 16C26 18.19 25.84 19.8 25.56 20.83C25.31 21.73 24.73 22.31 23.83 22.56C23.36 22.69 22.5 22.78 21.18 22.84C19.88 22.91 18.69 22.94 17.59 22.94L16 23C11.81 23 9.2 22.84 8.17 22.56C7.27 22.31 6.69 21.73 6.44 20.83C6.31 20.36 6.22 19.73 6.16 18.93C6.09 18.13 6.06 17.44 6.06 16.84L6 16C6 13.81 6.16 12.2 6.44 11.17C6.69 10.27 7.27 9.69 8.17 9.44C8.64 9.31 9.5 9.22 10.82 9.16C12.12 9.09 13.31 9.06 14.41 9.06L16 9C20.19 9 22.8 9.16 23.83 9.44C24.73 9.69 25.31 10.27 25.56 11.17Z" fill="white"/>
<defs>
<linearGradient id="paint0_linear" x1="6.15695" y1="27.6361" x2="25.6679" y2="4.54042" gradientUnits="userSpaceOnUse">
<stop stop-color="#FF8600"/>
<stop offset="1" stop-color="#FFC100"/>
</linearGradient>
</defs>
</svg>
