<svg width="24" height="25" viewBox="0 0 24 25" fill="none" xmlns="http://www.w3.org/2000/svg">
<path d="M11 14V22H3V14H11ZM9 16H5V20H9V16ZM12 2.5L17.5 11.5H6.5L12 2.5ZM12 6.36L10.08 9.5H13.92L12 6.36ZM17.5 13.5C20 13.5 22 15.5 22 18C22 20.5 20 22.5 17.5 22.5C15 22.5 13 20.5 13 18C13 15.5 15 13.5 17.5 13.5ZM17.5 15.5C16.837 15.5 16.2011 15.7634 15.7322 16.2322C15.2634 16.7011 15 17.337 15 18C15 18.663 15.2634 19.2989 15.7322 19.7678C16.2011 20.2366 16.837 20.5 17.5 20.5C18.163 20.5 18.7989 20.2366 19.2678 19.7678C19.7366 19.2989 20 18.663 20 18C20 17.337 19.7366 16.7011 19.2678 16.2322C18.7989 15.7634 18.163 15.5 17.5 15.5Z" fill="#43a724"/>
</svg>
